<svg xmlns="http://www.w3.org/2000/svg" width="275" height="74" viewBox="0 0 275 74">
    <g fill="none" fill-rule="evenodd">
        <g fill="#ED7203">
            <path d="M24.4 23.817l-1.33-14.19-1.69.613-6.313-4.507 2.353 13.254 5.732 5.413zM36.533 17.366V4.791l-1.458.495L29.067 2l1.137 11.867 5.359 4z"/>
            <path d="M36.533 39.739l-2.81 1.653-.5-7.614s3.419-1.71 4.437-2.147c1.019-.436 2.65-.736 3.22.382.482.948 1.135 4.282-4.347 7.726m1.986-22.03L14.054 29.874 2 18.906l8.695 42.414L20.021 72l15.098-9.25-.727-11.12s4.477-2.422 7.271-4.082c3.619-2.146 14.47-8.884 14.47-23.176 0-10.112-8.161-11.4-17.614-6.662"/>
        </g>
        <g fill="#FEFEFE">
            <path d="M92.157 38.407c-.51 2.954-2.777 3.363-4.83 3.363h-1.982l1.101-6.494h1.994c2.05 0 4.146.337 3.717 3.13m8.78-.181c1.228-7.054-3.268-9.022-6.867-9.022H78.998l-4.484 26.184h8.785l1.258-7.53h6.305c4.597 0 8.912-2.806 10.076-9.632M114.071 45.275c-.477 2.85-1.106 4.949-2.703 4.949-1.612 0-1.49-2.1-1-4.95.39-2.309 1-4.252 2.597-4.252 1.599 0 1.495 1.943 1.106 4.253m8.79 0c1.161-6.58-2.045-9.902-8.953-9.902-6.963 0-11.103 3.323-12.272 9.902-1.162 6.766 1.82 10.575 8.789 10.575 6.906 0 11.286-3.809 12.436-10.575M151.121 55.387h-10.273l.211-13.235h-.062l-4.403 13.235h-10.34l-.822-19.556h8.117l-.212 12.814h.047l3.98-12.814h9.959l-.295 12.814 4.093-12.814h7.568zM170.693 43.74h-4.304c.15-1.523 1.005-3.838 2.869-3.838 1.898 0 1.737 2.362 1.435 3.839zm6.405 4.154l.232-1.147c1.263-6.583-.39-11.374-7.023-11.374-6.96 0-11.16 3.323-12.324 9.902-1.151 6.766 1.884 10.576 8.85 10.576 2.867 0 5.515-.348 7.851-1.121l.886-5.064c-1.444.792-3.551 1.234-5.813 1.234-2.429 0-4.308-.56-4.082-3.006h11.423zM193.022 43.113c-2.316 0-4.629 2.274-5.137 5.163l-1.2 7.111h-8.242l3.36-19.556h7.734l-.77 4.43h.063c1.488-2.764 3.473-4.888 6.012-4.888.513 0 1.005.14 1.338.24l-1.338 7.79c-.325-.158-1.039-.29-1.82-.29M218.568 36.71c-.33 1.986-2.075 2.551-3.586 2.551h-2.246l.872-5.125H216c1.583 0 2.913.625 2.569 2.574m7.152 11.414c.444-2.624-1.118-5.459-4.209-5.972v-.042c3.188-.92 5.244-2.849 5.849-6.442.891-4.993-2.758-6.465-6.733-6.465h-14.43l-4.468 26.184h13.253c4.763 0 9.572-.658 10.738-7.263m-8.685-.847c-.334 2.04-2.212 2.719-3.822 2.719H210.9l.892-5.342h2.37c1.665 0 3.253.397 2.874 2.623M239.043 55.387l.555-3.346h-.038c-1.41 2.736-3.896 3.81-6.195 3.81-4.38 0-5.594-2.616-4.942-6.417l2.323-13.603h8.297l-1.928 11.283c-.225 1.12-.499 2.664.938 2.664 1.427 0 1.715-1.544 1.932-2.664l1.94-11.283h8.32l-3.351 19.556h-7.85zM265.16 52.216c-2.745 6.06-5.121 11.542-11.586 11.542-2.163 0-3.762-.383-5.309-.691l.941-5.575c.663.234 1.253.402 2.422.402 1.619 0 2.72-.855 2.87-1.875.279-1.473-.382-4.32-.718-6.453l-1.984-13.735h8.616v12.025h.067l4.15-12.025h7.951l-7.42 16.385z"/>
        </g>
    </g>
</svg>
